<mxfile host="app.diagrams.net" modified="2024-06-23T14:51:12.698Z" agent="Mozilla/5.0 (Windows NT 10.0; Win64; x64) AppleWebKit/537.36 (KHTML, like Gecko) Chrome/126.0.0.0 Safari/537.36" etag="KkKpbYwS66P5Wsdf_v6P" version="22.1.18" type="device">
  <diagram name="Strona-1" id="VaAk_UJU9DK3o8VFwrLk">
    <mxGraphModel dx="2074" dy="1098" grid="1" gridSize="10" guides="1" tooltips="1" connect="1" arrows="1" fold="1" page="1" pageScale="1" pageWidth="827" pageHeight="1169" background="none" math="0" shadow="0">
      <root>
        <mxCell id="0" />
        <mxCell id="1" parent="0" />
        <mxCell id="AzlgOToVcMv_ft99-5Oe-30" style="edgeStyle=orthogonalEdgeStyle;rounded=0;orthogonalLoop=1;jettySize=auto;html=1;endArrow=none;endFill=0;" edge="1" parent="1" source="AzlgOToVcMv_ft99-5Oe-1" target="AzlgOToVcMv_ft99-5Oe-20">
          <mxGeometry relative="1" as="geometry" />
        </mxCell>
        <mxCell id="AzlgOToVcMv_ft99-5Oe-31" style="edgeStyle=orthogonalEdgeStyle;rounded=0;orthogonalLoop=1;jettySize=auto;html=1;entryX=0;entryY=0.5;entryDx=0;entryDy=0;endArrow=none;endFill=0;" edge="1" parent="1" source="AzlgOToVcMv_ft99-5Oe-1" target="AzlgOToVcMv_ft99-5Oe-21">
          <mxGeometry relative="1" as="geometry" />
        </mxCell>
        <mxCell id="AzlgOToVcMv_ft99-5Oe-32" style="edgeStyle=orthogonalEdgeStyle;rounded=0;orthogonalLoop=1;jettySize=auto;html=1;endArrow=none;endFill=0;" edge="1" parent="1" source="AzlgOToVcMv_ft99-5Oe-1" target="AzlgOToVcMv_ft99-5Oe-22">
          <mxGeometry relative="1" as="geometry">
            <Array as="points">
              <mxPoint x="373" y="240" />
              <mxPoint x="373" y="220" />
            </Array>
          </mxGeometry>
        </mxCell>
        <mxCell id="AzlgOToVcMv_ft99-5Oe-33" style="edgeStyle=orthogonalEdgeStyle;rounded=0;orthogonalLoop=1;jettySize=auto;html=1;endArrow=none;endFill=0;" edge="1" parent="1" source="AzlgOToVcMv_ft99-5Oe-1">
          <mxGeometry relative="1" as="geometry">
            <mxPoint x="210" y="370" as="targetPoint" />
            <Array as="points">
              <mxPoint x="285" y="320" />
              <mxPoint x="211" y="320" />
            </Array>
          </mxGeometry>
        </mxCell>
        <mxCell id="AzlgOToVcMv_ft99-5Oe-34" style="edgeStyle=orthogonalEdgeStyle;rounded=0;orthogonalLoop=1;jettySize=auto;html=1;entryX=0;entryY=0.5;entryDx=0;entryDy=0;endArrow=none;endFill=0;" edge="1" parent="1" source="AzlgOToVcMv_ft99-5Oe-1" target="AzlgOToVcMv_ft99-5Oe-29">
          <mxGeometry relative="1" as="geometry">
            <Array as="points">
              <mxPoint x="285" y="260" />
              <mxPoint x="370" y="260" />
              <mxPoint x="370" y="315" />
            </Array>
          </mxGeometry>
        </mxCell>
        <mxCell id="AzlgOToVcMv_ft99-5Oe-39" style="edgeStyle=orthogonalEdgeStyle;rounded=0;orthogonalLoop=1;jettySize=auto;html=1;endArrow=none;endFill=0;" edge="1" parent="1" source="AzlgOToVcMv_ft99-5Oe-1" target="AzlgOToVcMv_ft99-5Oe-23">
          <mxGeometry relative="1" as="geometry">
            <Array as="points">
              <mxPoint x="100" y="260" />
              <mxPoint x="100" y="580" />
            </Array>
          </mxGeometry>
        </mxCell>
        <mxCell id="AzlgOToVcMv_ft99-5Oe-1" value="&lt;li&gt;&lt;b&gt;Dział kadr&lt;/b&gt;&lt;/li&gt;&lt;li&gt;&lt;b&gt;&lt;br&gt;&lt;/b&gt;&lt;/li&gt;" style="shape=umlActor;verticalLabelPosition=bottom;verticalAlign=top;html=1;outlineConnect=0;" vertex="1" parent="1">
          <mxGeometry x="270" y="190" width="50" height="80" as="geometry" />
        </mxCell>
        <mxCell id="AzlgOToVcMv_ft99-5Oe-14" style="edgeStyle=orthogonalEdgeStyle;rounded=0;orthogonalLoop=1;jettySize=auto;html=1;endArrow=none;endFill=0;" edge="1" parent="1" source="AzlgOToVcMv_ft99-5Oe-4" target="AzlgOToVcMv_ft99-5Oe-8">
          <mxGeometry relative="1" as="geometry" />
        </mxCell>
        <mxCell id="AzlgOToVcMv_ft99-5Oe-16" style="edgeStyle=orthogonalEdgeStyle;rounded=0;orthogonalLoop=1;jettySize=auto;html=1;entryX=0;entryY=0.5;entryDx=0;entryDy=0;endArrow=none;endFill=0;" edge="1" parent="1" source="AzlgOToVcMv_ft99-5Oe-4" target="AzlgOToVcMv_ft99-5Oe-13">
          <mxGeometry relative="1" as="geometry" />
        </mxCell>
        <mxCell id="AzlgOToVcMv_ft99-5Oe-17" style="edgeStyle=orthogonalEdgeStyle;rounded=0;orthogonalLoop=1;jettySize=auto;html=1;entryX=0;entryY=1;entryDx=0;entryDy=0;endArrow=none;endFill=0;" edge="1" parent="1" source="AzlgOToVcMv_ft99-5Oe-4" target="AzlgOToVcMv_ft99-5Oe-10">
          <mxGeometry relative="1" as="geometry">
            <Array as="points">
              <mxPoint x="980" y="240" />
              <mxPoint x="980" y="298" />
            </Array>
          </mxGeometry>
        </mxCell>
        <mxCell id="AzlgOToVcMv_ft99-5Oe-19" style="edgeStyle=orthogonalEdgeStyle;rounded=0;orthogonalLoop=1;jettySize=auto;html=1;endArrow=none;endFill=0;" edge="1" parent="1" source="AzlgOToVcMv_ft99-5Oe-4" target="AzlgOToVcMv_ft99-5Oe-12">
          <mxGeometry relative="1" as="geometry" />
        </mxCell>
        <mxCell id="AzlgOToVcMv_ft99-5Oe-4" value="Dział Projektów&lt;br&gt;" style="shape=umlActor;verticalLabelPosition=bottom;verticalAlign=top;html=1;outlineConnect=0;" vertex="1" parent="1">
          <mxGeometry x="870" y="180" width="30" height="60" as="geometry" />
        </mxCell>
        <mxCell id="AzlgOToVcMv_ft99-5Oe-5" value="Kandydat" style="shape=umlActor;verticalLabelPosition=bottom;verticalAlign=top;html=1;outlineConnect=0;" vertex="1" parent="1">
          <mxGeometry x="880" y="930" width="30" height="60" as="geometry" />
        </mxCell>
        <mxCell id="AzlgOToVcMv_ft99-5Oe-6" value="Planowanie zasobów ludzkich" style="ellipse;whiteSpace=wrap;html=1;" vertex="1" parent="1">
          <mxGeometry x="660" y="70" width="120" height="80" as="geometry" />
        </mxCell>
        <mxCell id="AzlgOToVcMv_ft99-5Oe-7" style="rounded=0;orthogonalLoop=1;jettySize=auto;html=1;entryX=1;entryY=0.75;entryDx=0;entryDy=0;entryPerimeter=0;strokeColor=default;startArrow=none;startFill=0;endArrow=none;endFill=0;" edge="1" parent="1" source="AzlgOToVcMv_ft99-5Oe-4" target="AzlgOToVcMv_ft99-5Oe-6">
          <mxGeometry relative="1" as="geometry" />
        </mxCell>
        <mxCell id="AzlgOToVcMv_ft99-5Oe-8" value="Wyznaczenie stanowiska pracy" style="ellipse;whiteSpace=wrap;html=1;" vertex="1" parent="1">
          <mxGeometry x="660" y="220" width="120" height="80" as="geometry" />
        </mxCell>
        <mxCell id="AzlgOToVcMv_ft99-5Oe-9" value="Przekazanie zapotrzebowania na nowego pracownika" style="ellipse;whiteSpace=wrap;html=1;" vertex="1" parent="1">
          <mxGeometry x="710" y="360" width="120" height="80" as="geometry" />
        </mxCell>
        <mxCell id="AzlgOToVcMv_ft99-5Oe-10" value="Porównanie aplikacji z wymaganiami projektu" style="ellipse;whiteSpace=wrap;html=1;" vertex="1" parent="1">
          <mxGeometry x="1121" y="270" width="120" height="80" as="geometry" />
        </mxCell>
        <mxCell id="AzlgOToVcMv_ft99-5Oe-11" value="Wybór najlepszych kandydatów" style="ellipse;whiteSpace=wrap;html=1;" vertex="1" parent="1">
          <mxGeometry x="910" y="540" width="120" height="80" as="geometry" />
        </mxCell>
        <mxCell id="AzlgOToVcMv_ft99-5Oe-12" value="&#xa;Rozmowa z pracownikami działu projektów&#xa;&#xa;" style="ellipse;whiteSpace=wrap;html=1;" vertex="1" parent="1">
          <mxGeometry x="820" y="30" width="120" height="80" as="geometry" />
        </mxCell>
        <mxCell id="AzlgOToVcMv_ft99-5Oe-13" value="&#xa;Decyzja o zatrudnieniu&#xa;&#xa;" style="ellipse;whiteSpace=wrap;html=1;" vertex="1" parent="1">
          <mxGeometry x="1110" y="70" width="120" height="80" as="geometry" />
        </mxCell>
        <mxCell id="AzlgOToVcMv_ft99-5Oe-15" style="edgeStyle=orthogonalEdgeStyle;rounded=0;orthogonalLoop=1;jettySize=auto;html=1;entryX=1;entryY=0.25;entryDx=0;entryDy=0;entryPerimeter=0;endArrow=none;endFill=0;" edge="1" parent="1" source="AzlgOToVcMv_ft99-5Oe-4" target="AzlgOToVcMv_ft99-5Oe-9">
          <mxGeometry relative="1" as="geometry">
            <Array as="points">
              <mxPoint x="840" y="210" />
              <mxPoint x="840" y="380" />
            </Array>
          </mxGeometry>
        </mxCell>
        <mxCell id="AzlgOToVcMv_ft99-5Oe-18" style="edgeStyle=orthogonalEdgeStyle;rounded=0;orthogonalLoop=1;jettySize=auto;html=1;entryX=0.5;entryY=0;entryDx=0;entryDy=0;endArrow=none;endFill=0;" edge="1" parent="1" source="AzlgOToVcMv_ft99-5Oe-4" target="AzlgOToVcMv_ft99-5Oe-11">
          <mxGeometry relative="1" as="geometry">
            <Array as="points">
              <mxPoint x="890" y="424" />
              <mxPoint x="970" y="424" />
            </Array>
          </mxGeometry>
        </mxCell>
        <mxCell id="AzlgOToVcMv_ft99-5Oe-20" value="Skompletowanie szczegółowych obowiązków i określenie płacy" style="ellipse;whiteSpace=wrap;html=1;" vertex="1" parent="1">
          <mxGeometry x="180" y="40" width="120" height="80" as="geometry" />
        </mxCell>
        <mxCell id="AzlgOToVcMv_ft99-5Oe-21" value="&#xa;Przygotowanie i umieszczenie ogłoszenia o pracę&#xa;&#xa;" style="ellipse;whiteSpace=wrap;html=1;" vertex="1" parent="1">
          <mxGeometry x="400" y="40" width="120" height="80" as="geometry" />
        </mxCell>
        <mxCell id="AzlgOToVcMv_ft99-5Oe-22" value="&#xa;Przeglądanie i selekcja zgłoszeń przez dział kadr&#xa;&#xa;" style="ellipse;whiteSpace=wrap;html=1;" vertex="1" parent="1">
          <mxGeometry x="490" y="160" width="120" height="80" as="geometry" />
        </mxCell>
        <mxCell id="AzlgOToVcMv_ft99-5Oe-37" value="include" style="edgeStyle=orthogonalEdgeStyle;rounded=0;orthogonalLoop=1;jettySize=auto;html=1;dashed=1;" edge="1" parent="1" source="AzlgOToVcMv_ft99-5Oe-23" target="AzlgOToVcMv_ft99-5Oe-11">
          <mxGeometry relative="1" as="geometry" />
        </mxCell>
        <mxCell id="AzlgOToVcMv_ft99-5Oe-23" value="&#xa;Przekazanie wybranych aplikacji do działu projektów&#xa;&#xa;" style="ellipse;whiteSpace=wrap;html=1;" vertex="1" parent="1">
          <mxGeometry x="490" y="540" width="120" height="80" as="geometry" />
        </mxCell>
        <mxCell id="AzlgOToVcMv_ft99-5Oe-36" value="include" style="edgeStyle=orthogonalEdgeStyle;rounded=0;orthogonalLoop=1;jettySize=auto;html=1;dashed=1;entryX=1;entryY=0.5;entryDx=0;entryDy=0;" edge="1" parent="1" source="AzlgOToVcMv_ft99-5Oe-24" target="AzlgOToVcMv_ft99-5Oe-25">
          <mxGeometry relative="1" as="geometry">
            <mxPoint x="290" y="410" as="targetPoint" />
          </mxGeometry>
        </mxCell>
        <mxCell id="AzlgOToVcMv_ft99-5Oe-24" value="&#xa;Wysyłanie zaproszeń do testu wstępnego&#xa;&#xa;" style="ellipse;whiteSpace=wrap;html=1;" vertex="1" parent="1">
          <mxGeometry x="475" y="380" width="150" height="90" as="geometry" />
        </mxCell>
        <mxCell id="AzlgOToVcMv_ft99-5Oe-25" value="&#xa;Ogłoszenie wyników testu&#xa;&#xa;" style="ellipse;whiteSpace=wrap;html=1;" vertex="1" parent="1">
          <mxGeometry x="140" y="370" width="130" height="80" as="geometry" />
        </mxCell>
        <mxCell id="AzlgOToVcMv_ft99-5Oe-26" value="&#xa;Przeprowadzenie rozmowy kwalifikacyjnej w dziale kadr&#xa;&#xa;" style="ellipse;whiteSpace=wrap;html=1;" vertex="1" parent="1">
          <mxGeometry x="10" y="90" width="160" height="110" as="geometry" />
        </mxCell>
        <mxCell id="AzlgOToVcMv_ft99-5Oe-35" value="include" style="edgeStyle=orthogonalEdgeStyle;rounded=0;orthogonalLoop=1;jettySize=auto;html=1;dashed=1;exitX=0;exitY=0.5;exitDx=0;exitDy=0;" edge="1" parent="1" source="AzlgOToVcMv_ft99-5Oe-27">
          <mxGeometry relative="1" as="geometry">
            <mxPoint x="240" y="490" as="sourcePoint" />
            <mxPoint x="225" y="450" as="targetPoint" />
          </mxGeometry>
        </mxCell>
        <mxCell id="AzlgOToVcMv_ft99-5Oe-27" value="&#xa;Decyzja o przejściu kandydata do kolejnego etapu&#xa;&#xa;" style="ellipse;whiteSpace=wrap;html=1;" vertex="1" parent="1">
          <mxGeometry x="290" y="460" width="155" height="80" as="geometry" />
        </mxCell>
        <mxCell id="AzlgOToVcMv_ft99-5Oe-28" value="&#xa;Przygotowanie umowy i przekazanie informacji kandydatowi&#xa;&#xa;" style="ellipse;whiteSpace=wrap;html=1;" vertex="1" parent="1">
          <mxGeometry x="130" y="690" width="170" height="100" as="geometry" />
        </mxCell>
        <mxCell id="AzlgOToVcMv_ft99-5Oe-29" value="&#xa;Powiadomienie pozostałych kandydatów i zarchiwizowanie ogłoszenia&#xa;&#xa;" style="ellipse;whiteSpace=wrap;html=1;" vertex="1" parent="1">
          <mxGeometry x="475" y="260" width="150" height="110" as="geometry" />
        </mxCell>
        <mxCell id="AzlgOToVcMv_ft99-5Oe-38" style="edgeStyle=orthogonalEdgeStyle;rounded=0;orthogonalLoop=1;jettySize=auto;html=1;entryX=0.25;entryY=0.1;entryDx=0;entryDy=0;entryPerimeter=0;startArrow=none;startFill=0;endArrow=none;endFill=0;" edge="1" parent="1" source="AzlgOToVcMv_ft99-5Oe-26" target="AzlgOToVcMv_ft99-5Oe-1">
          <mxGeometry relative="1" as="geometry" />
        </mxCell>
        <mxCell id="AzlgOToVcMv_ft99-5Oe-40" style="edgeStyle=orthogonalEdgeStyle;rounded=0;orthogonalLoop=1;jettySize=auto;html=1;entryX=0;entryY=0.5;entryDx=0;entryDy=0;endArrow=none;endFill=0;" edge="1" parent="1" source="AzlgOToVcMv_ft99-5Oe-1" target="AzlgOToVcMv_ft99-5Oe-28">
          <mxGeometry relative="1" as="geometry">
            <Array as="points">
              <mxPoint x="40" y="220" />
              <mxPoint x="40" y="740" />
            </Array>
          </mxGeometry>
        </mxCell>
        <mxCell id="AzlgOToVcMv_ft99-5Oe-41" value="Złożenie aplikacji przez kandydata" style="ellipse;whiteSpace=wrap;html=1;" vertex="1" parent="1">
          <mxGeometry x="810" y="730" width="120" height="80" as="geometry" />
        </mxCell>
        <mxCell id="AzlgOToVcMv_ft99-5Oe-46" style="edgeStyle=orthogonalEdgeStyle;rounded=0;orthogonalLoop=1;jettySize=auto;html=1;endArrow=none;endFill=0;" edge="1" parent="1" source="AzlgOToVcMv_ft99-5Oe-42" target="AzlgOToVcMv_ft99-5Oe-5">
          <mxGeometry relative="1" as="geometry">
            <Array as="points">
              <mxPoint x="720" y="950" />
            </Array>
          </mxGeometry>
        </mxCell>
        <mxCell id="AzlgOToVcMv_ft99-5Oe-42" value="Przeprowadzenie testu wstępnego online" style="ellipse;whiteSpace=wrap;html=1;" vertex="1" parent="1">
          <mxGeometry x="660" y="730" width="120" height="80" as="geometry" />
        </mxCell>
        <mxCell id="AzlgOToVcMv_ft99-5Oe-43" value="&#xa;Ustalenie terminu rozmowy kwalifikacyjnej&#xa;&#xa;" style="ellipse;whiteSpace=wrap;html=1;" vertex="1" parent="1">
          <mxGeometry x="1030" y="730" width="120" height="80" as="geometry" />
        </mxCell>
        <mxCell id="AzlgOToVcMv_ft99-5Oe-44" style="edgeStyle=orthogonalEdgeStyle;rounded=0;orthogonalLoop=1;jettySize=auto;html=1;entryX=1;entryY=0.3333333333333333;entryDx=0;entryDy=0;entryPerimeter=0;endArrow=none;endFill=0;" edge="1" parent="1" source="AzlgOToVcMv_ft99-5Oe-43" target="AzlgOToVcMv_ft99-5Oe-5">
          <mxGeometry relative="1" as="geometry" />
        </mxCell>
        <mxCell id="AzlgOToVcMv_ft99-5Oe-45" style="edgeStyle=orthogonalEdgeStyle;rounded=0;orthogonalLoop=1;jettySize=auto;html=1;entryX=0.75;entryY=0.1;entryDx=0;entryDy=0;entryPerimeter=0;endArrow=none;endFill=0;" edge="1" parent="1" source="AzlgOToVcMv_ft99-5Oe-41" target="AzlgOToVcMv_ft99-5Oe-5">
          <mxGeometry relative="1" as="geometry" />
        </mxCell>
      </root>
    </mxGraphModel>
  </diagram>
</mxfile>
